<mxfile host="app.diagrams.net" modified="2023-11-24T13:46:37.976Z" agent="Mozilla/5.0 (Linux; Android 10; K) AppleWebKit/537.36 (KHTML, like Gecko) Chrome/119.0.0.0 Mobile Safari/537.36" version="22.1.3" etag="pQFvdIg2dX8WtsTB7HVi" type="github">
  <diagram name="Page-1" id="9G2mTGzUBd6EhxY-sixV">
    <mxGraphModel>
      <root>
        <mxCell id="0" />
        <mxCell id="1" parent="0" />
      </root>
    </mxGraphModel>
  </diagram>
</mxfile>
